<svg width="153" height="28" viewBox="0 0 153 28" fill="none" xmlns="http://www.w3.org/2000/svg">
<path d="M46.896 19.232L41.904 5.72H37.608V23H40.968V16.616C41.016 14.816 40.992 12.536 40.776 10.736L45.24 23H48.408L52.848 11.192C52.68 12.752 52.608 14.84 52.608 16.616V23H55.992V5.72H51.888L46.896 19.232ZM67.4494 15.368H71.0254C70.4734 12.104 68.0974 10.28 64.9294 10.28C61.1374 10.28 58.5934 12.872 58.5934 16.76C58.5934 20.672 61.1374 23.264 64.9054 23.264C68.0494 23.264 70.4254 21.344 71.0254 18.104H67.4494C67.0414 19.568 66.1534 20.336 64.8094 20.336C63.2254 20.336 62.0254 19.184 62.0254 16.76C62.0254 14.552 63.1534 13.16 64.9054 13.16C66.1534 13.16 67.1374 13.928 67.4494 15.368ZM80.9119 20.072C77.9119 20.072 76.0879 17.792 76.0879 14.36C76.0879 10.928 77.9599 8.624 80.9599 8.624C82.9759 8.624 84.5359 9.584 85.2319 11.504H88.9999C88.1119 7.76 85.1599 5.48 81.0319 5.48C75.7519 5.48 72.5359 9.32 72.5359 14.504C72.5359 19.76 75.8719 23.216 80.8639 23.216C85.1359 23.216 88.1359 20.792 88.9999 17.192H85.2319C84.5359 19.136 82.9039 20.072 80.9119 20.072ZM99.2713 10.52V17.36C99.2713 19.208 98.4073 20.312 96.7513 20.336C95.1673 20.384 94.1593 19.448 94.1593 17.504V10.52H90.9673V17.936C90.9673 21.128 92.8153 23.24 96.0073 23.24C97.4953 23.24 98.5753 22.568 99.2233 21.632L99.3913 23H102.463V10.52H99.2713ZM108.604 4.976H105.244V23H108.604V4.976ZM114.768 4.976H111.408V23H114.768V4.976ZM125.756 10.52V17.36C125.756 19.208 124.892 20.312 123.236 20.336C121.652 20.384 120.644 19.448 120.644 17.504V10.52H117.452V17.936C117.452 21.128 119.3 23.24 122.492 23.24C123.98 23.24 125.06 22.568 125.708 21.632L125.876 23H128.948V10.52H125.756ZM146.152 10.28C144.592 10.28 143.104 10.952 142.36 12.416C141.592 10.952 140.152 10.28 138.472 10.28C136.96 10.28 135.808 10.856 135.208 11.888L134.848 10.52H131.728V23H135.088V16.016C135.088 14.168 136.048 13.28 137.464 13.28C138.808 13.28 139.72 14.12 139.72 16.16V23H142.96V16.088C143.008 14.144 144.016 13.28 145.336 13.28C146.704 13.28 147.592 14.12 147.592 15.992V23.024H150.976V15.32C150.976 11.864 148.648 10.28 146.152 10.28Z" fill="#0F0D1C"/>
<circle cx="14" cy="14" r="14" fill="#756BEE"/>
<path d="M8.34277 14L13.9996 19.6569M8.34277 14L16.8281 16.8284L13.9996 8.34315M8.34277 14L13.9996 8.34315M13.9996 8.34315L19.6565 14" stroke="white" stroke-linecap="round" stroke-linejoin="round"/>
</svg>
